<svg width="80" height="61" viewBox="0 0 80 61" fill="none" xmlns="http://www.w3.org/2000/svg">
            <path d="M7.00647 39.3337L77.1076 25.3896L76.8764 24.2271L6.77532 38.1712L68.6535 12.5402L68.2013 11.4422L6.32321 37.0732L55.9399 3.91944L55.2805 2.93363L5.66373 36.0874L40.9115 0.839636L40.0718 0L4.8241 35.2477L25.866 3.75627L24.8768 3.0968L3.83489 34.5883L13.1015 12.2172L12.0069 11.7651L2.74031 34.1327L4.57255 24.9239L3.40658 24.6928L0.258789 40.5201H80.0004V39.3337H7.00647Z" fill="white"></path>
            <path d="M9.06943 57.1708C9.06943 58.8977 7.42415 60.3118 4.70128 60.3118C1.69627 60.3118 0.149571 58.2858 0 56.1103H1.47871C1.57729 57.7555 2.88944 59.1187 4.6333 59.1187C6.32617 59.1187 7.50574 58.3708 7.50574 57.1572C7.50574 56.0933 6.82587 55.4814 5.34716 55.1312L3.80386 54.7641C1.41072 54.1998 0.282145 53.1868 0.282145 51.5925C0.282145 49.7161 2.12459 48.5195 4.28656 48.5195C7.12841 48.5195 8.55613 50.1138 8.75669 52.0922H7.27458C7.14201 50.7291 6.11201 49.7161 4.35115 49.7161C2.85544 49.7161 1.82544 50.3654 1.82544 51.5279C1.82544 52.3914 2.35574 52.8741 4.24917 53.3228L5.79247 53.6865C7.92385 54.1794 9.06943 55.1754 9.06943 57.1708Z" fill="white"></path>
            <path d="M10.6943 60.1423V48.6797H12.1221V60.1423H10.6943Z" fill="white"></path>
            <path d="M14.5488 60.1423V48.6797H15.9765V60.1423H14.5488Z" fill="white"></path>
            <path d="M25.4676 60.1423H18.4004V48.6797H19.8281V58.9457H25.4676V60.1423Z" fill="white"></path>
            <path d="M26.7598 60.1423V48.6797H28.1875V60.1423H26.7598Z" fill="white"></path>
            <path d="M32.6402 59.4737H32.29V57.4375H32.8509C33.3438 57.4375 33.7042 57.6483 33.7042 58.0426C33.7042 58.3213 33.5274 58.5083 33.2453 58.5967L33.7382 59.4737H33.3608L32.8951 58.6511C32.8815 58.6511 32.8679 58.6511 32.8509 58.6511H32.6402V59.4737ZM33.3234 58.0426C33.3234 57.8386 33.1909 57.7196 32.8781 57.7196H32.6402V58.3689H32.8781C33.1909 58.3723 33.3234 58.2465 33.3234 58.0426Z" fill="white"></path>
            <path d="M32.9324 56.6367C31.9262 56.6367 31.1104 57.4594 31.1104 58.4588C31.1104 59.4616 31.9262 60.2808 32.9324 60.2808C33.9352 60.2808 34.7544 59.4582 34.7544 58.4588C34.7544 57.4594 33.9352 56.6367 32.9324 56.6367ZM32.9324 59.9477C32.1064 59.9477 31.4435 59.2814 31.4435 58.4588C31.4435 57.6361 32.1064 56.9699 32.9324 56.9699C33.7584 56.9699 34.4213 57.6361 34.4213 58.4588C34.4213 59.2814 33.7584 59.9477 32.9324 59.9477Z" fill="white"></path>
          </svg>
